<svg width="230" height="93" viewBox="0 0 230 93" fill="none" xmlns="http://www.w3.org/2000/svg">
<path d="M132.706 37.5212H133.419C136.588 37.5212 138.714 38.4468 139.799 40.2979C140.632 41.6949 141.049 44.2226 141.049 47.8805V72.9298H134.858V49.1064C134.858 46.6711 134.712 44.9782 134.419 44.0281C133.877 42.1655 132.709 41.234 130.915 41.234H122.221V72.9194H115.905V68.6828V64.8408C115.876 64.303 115.85 62.885 115.818 61.0757C115.799 59.9128 115.747 55.4002 115.721 54.0451C115.676 51.7679 115.537 50.3673 115.463 48.5476C115.379 46.452 115.315 46.8012 115.069 45.0933C114.872 43.7242 114.634 42.4458 114.372 41.1956C113.498 37.0287 112.352 33.2078 111.577 27.6161C110.525 20.065 111.335 16.4395 111.807 12.5208C112.181 9.53691 112.864 6.60803 113.843 3.7891C114.311 2.47935 114.895 0.537434 116.773 1.0299C118.651 1.52236 117.838 3.64241 116.502 11.3612C114.588 22.419 120.833 37.3885 130.037 37.3885L131.447 37.4898H132.609H132.725L132.706 37.5212Z" fill="white"/>
<path d="M132.665 36.2591H133.379C136.552 36.2591 138.68 37.1532 139.766 38.9416C140.601 40.2914 141.017 42.7334 141.017 46.2673V70.4681H134.82V47.4517C134.82 45.0988 134.674 43.4632 134.381 42.5454C133.838 40.7459 132.668 39.846 130.872 39.846H122.168V70.458H115.846V62.6598C115.768 61.2393 115.7 53.4951 115.523 49.0714C115.154 39.9945 112.818 35.7529 111.517 26.7029C110.463 19.4077 111.274 15.905 111.746 12.119C112.121 9.2363 112.805 6.40661 113.785 3.68321C114.253 2.41783 114.838 0.541702 116.718 1.01748C118.598 1.49326 117.784 3.54149 116.447 10.9988C114.531 21.6819 120.782 36.1443 129.997 36.1443L131.408 36.2421H132.571H132.688L132.665 36.2591ZM23.297 30.6407H14.4027V70.4748H8.14155V30.6407H0V27.0437H23.297V30.6407ZM52.4192 59.6837C52.4192 63.2605 52.0016 65.8115 51.1657 67.3366C50.0392 69.4264 47.9101 70.4724 44.7786 70.4748H33.8165C30.6848 70.4748 28.5557 69.4287 27.4293 67.3366C26.5936 65.8092 26.1757 63.2571 26.1757 59.6803V46.9928C26.1757 43.4609 26.5936 40.9315 27.4293 39.4039C28.5578 37.3118 30.6869 36.2648 33.8165 36.2624H44.7753C47.9068 36.2624 50.0359 37.3095 51.1624 39.4039C51.9983 40.9315 52.4161 43.4609 52.4161 46.9928V59.6803L52.4192 59.6837ZM46.0934 46.9253C46.0934 44.7456 45.9263 43.1707 45.5927 42.2013C45.0088 40.6264 43.8609 39.8392 42.1486 39.8392H36.4495C34.7266 39.8392 33.5784 40.6264 33.0056 42.2013C32.6308 43.1707 32.4435 44.7456 32.4435 46.9253V59.1573C32.4156 60.9149 32.8263 62.6501 33.6355 64.1918C34.5961 65.9778 35.8883 66.872 37.5125 66.8745H41.0825C43.2946 66.8745 44.7355 66.2198 45.4053 64.9105C45.8641 64.0376 46.0934 62.337 46.0934 59.8085V46.9253ZM81.2281 70.4107H63.6915C60.5166 70.4107 58.3875 69.5165 57.3042 67.7281C56.4685 66.3312 56.0507 63.8892 56.0507 60.4025V36.2017H62.1891V59.1472C62.1891 61.5001 62.3562 63.1582 62.6899 64.1209C63.2327 65.8645 64.4022 66.7361 66.1985 66.7361H74.9669V36.2017H81.2281V70.4107ZM110.725 81.6574C110.725 85.2308 110.657 92.2932 110.706 92.3608C110.754 92.4283 106.215 92.4485 103.084 92.4485H97.9797C95.8731 92.4485 92.9655 91.5576 91.3953 90.1978C90.3711 89.3104 88.4876 87.1609 87.9545 85.0519C87.5668 83.5602 87.4163 82.0124 87.5087 80.4696C87.6056 79.5383 88.3196 78.607 89.2598 78.607C90.2677 78.607 90.9171 79.2818 90.9171 80.5506C90.9013 81.743 91.0328 82.9329 91.308 84.0903C91.783 85.7336 93.2465 87.1508 93.799 87.559C94.9501 88.3834 96.3096 88.8319 97.705 88.8481C99.8405 88.8481 101.039 87.964 101.905 87.3094C103.075 86.4793 104.49 84.0262 104.49 82.2478L104.406 39.7751L101.356 39.8561C100.018 39.8123 98.2317 39.7953 97.4789 39.819C94.2287 39.9202 93.0688 40.6558 92.4032 42.3564C92.0673 43.1417 91.921 45.497 91.9639 49.4224L92.0253 60.0177C92.0253 62.1075 92.2127 63.6114 92.5875 64.5293C93.1712 66.0095 94.2988 66.7506 95.9701 66.7529H101.517V70.4107H93.4404C90.2677 70.4107 88.1138 69.3647 86.9788 67.2726C86.1431 65.745 85.7253 63.194 85.7253 59.6196V46.9253C85.7253 43.3934 86.1637 40.864 87.0403 39.3364C88.1668 37.2443 90.2959 36.1983 93.4274 36.1983H107.594C109.21 36.1983 110.712 39.4714 110.712 81.6506L110.725 81.6574ZM229.449 70.4782H222.432L212.914 55.2937V70.4782H206.582V27.2394H212.914V49.6248L222.183 36.2185H228.51L216.92 51.6494L229.447 70.4883L229.449 70.4782ZM171.834 59.6803C171.834 63.2571 171.418 65.8081 170.582 67.3334C169.452 69.423 167.323 70.469 164.194 70.4715H153.233C150.101 70.4715 147.972 69.4254 146.845 67.3334C146.009 65.8057 145.591 63.2547 145.591 59.6803V46.9928C145.591 43.4609 146.009 40.9315 146.845 39.4039C147.973 37.3118 150.102 36.2648 153.233 36.2624H164.192C167.323 36.2624 169.451 37.3095 170.578 39.4039C171.414 40.9315 171.832 43.4609 171.832 46.9928V59.6803H171.834ZM165.505 46.9253C165.505 44.7456 165.339 43.1707 165.006 42.2013C164.421 40.6264 163.274 39.8392 161.561 39.8392H155.859C154.149 39.8392 153 40.6264 152.414 42.2013C152.038 43.1595 151.849 44.7344 151.849 46.9253V59.1573C151.822 60.9146 152.231 62.6494 153.039 64.1918C153.999 65.9778 155.291 66.872 156.915 66.8745H160.47C162.681 66.8745 164.122 66.2198 164.792 64.9105C165.251 64.0376 165.479 62.337 165.479 59.8085V46.9253H165.505ZM201.829 59.6803C201.829 63.2571 201.411 65.8081 200.576 67.3334C199.449 69.423 197.32 70.469 194.189 70.4715H183.23C180.099 70.4715 177.969 69.4254 176.843 67.3334C176.01 65.8057 175.592 63.2547 175.589 59.6803V46.9928C175.589 43.4609 176.007 40.9315 176.843 39.4039C177.971 37.3118 180.1 36.2648 183.23 36.2624H194.189C197.32 36.2624 199.449 37.3095 200.576 39.4039C201.411 40.9315 201.829 43.4609 201.829 46.9928V59.6803ZM195.503 46.9253C195.503 44.7456 195.337 43.1707 195.003 42.2013C194.419 40.6264 193.272 39.8392 191.559 39.8392H185.859C184.137 39.8392 182.989 40.6264 182.416 42.2013C182.039 43.1595 181.851 44.7344 181.854 46.9253V59.1573C181.825 60.9149 182.235 62.6501 183.043 64.1918C184.003 65.9778 185.295 66.872 186.919 66.8745H190.473C192.686 66.8745 194.126 66.2198 194.796 64.9105C195.255 64.0376 195.484 62.337 195.484 59.8085V46.9253H195.503Z" fill="white"/>
</svg>
