<svg width="20" height="22" viewBox="0 0 21 23" fill="none" xmlns="http://www.w3.org/2000/svg">
<path fill-rule="evenodd" clip-rule="evenodd" d="M13.7583 4.88213C12.9183 4.84513 12.6623 4.83613 10.5283 4.83613C8.38432 4.83613 8.13832 4.84613 7.29032 4.89113C6.51432 4.91813 6.09532 5.05513 5.80332 5.16413C5.45794 5.28938 5.14592 5.49226 4.89132 5.75713C4.62462 6.0159 4.41897 6.33087 4.28932 6.67913C4.17932 6.96113 4.05132 7.38113 4.01532 8.16513C3.96932 9.00513 3.96932 9.26013 3.96932 11.3951C3.96932 13.5301 3.97932 13.7851 4.01532 14.6241C4.01932 15.1341 4.11232 15.6401 4.28932 16.1191C4.43432 16.4841 4.60832 16.7581 4.89132 17.0321C5.17332 17.3141 5.42932 17.4881 5.81132 17.6341C6.28532 17.8101 6.78532 17.9021 7.29032 17.9071C8.13832 17.9531 8.39332 17.9531 10.5283 17.9531C12.6633 17.9531 12.9183 17.9431 13.7583 17.9071C14.5423 17.8711 14.9613 17.7431 15.2443 17.6341C15.6183 17.4881 15.8923 17.3051 16.1653 17.0321C16.4483 16.7491 16.6123 16.4841 16.7673 16.1101C16.9443 15.6341 17.0373 15.1311 17.0413 14.6241C17.0783 13.7841 17.0873 13.5291 17.0873 11.3941C17.0873 9.25912 17.0773 9.00413 17.0323 8.16513C17.0053 7.38113 16.8683 6.96113 16.7583 6.67013C16.6332 6.32439 16.4303 6.01202 16.1653 5.75713C15.9051 5.49317 15.5914 5.28792 15.2453 5.15513C14.9613 5.04513 14.5433 4.91813 13.7583 4.88213ZM7.22532 3.44013C8.08232 3.40413 8.35632 3.39513 10.5273 3.39513C11.6282 3.38127 12.7292 3.39628 13.8293 3.44013C14.4933 3.45413 15.1503 3.58013 15.7723 3.81413C16.3039 4.01737 16.7859 4.33171 17.1863 4.73613C17.5963 5.13313 17.9143 5.61613 18.1163 6.15013C18.3463 6.77213 18.4703 7.42913 18.4813 8.09213C18.5283 8.95013 18.5283 9.21413 18.5283 11.3951C18.5283 13.5651 18.5183 13.8391 18.4823 14.6871C18.4463 15.5451 18.3093 16.1291 18.1083 16.6301C17.9083 17.1601 17.6343 17.6061 17.1883 18.0531C16.7897 18.4601 16.3067 18.7748 15.7733 18.9751C15.2633 19.1661 14.6783 19.3121 13.8303 19.3491C12.9733 19.3851 12.7083 19.3941 10.5283 19.3941C8.35732 19.3941 8.08332 19.3851 7.22632 19.3391C6.37732 19.3121 5.79432 19.1751 5.28332 18.9751C4.7538 18.7679 4.27251 18.4541 3.86932 18.0531C3.46331 17.649 3.1465 17.1642 2.93932 16.6301C2.75632 16.1201 2.61032 15.5451 2.57432 14.6871C2.53732 13.8401 2.52832 13.5571 2.52832 11.3941C2.52832 9.23312 2.52832 8.95913 2.58332 8.09213C2.61032 7.24413 2.74732 6.66013 2.94832 6.15013C3.16092 5.62387 3.47332 5.14371 3.86832 4.73613C4.27196 4.33328 4.75341 4.01685 5.28332 3.80613C5.79332 3.62313 6.37632 3.47613 7.22532 3.44013ZM7.65232 8.24613C8.03196 7.8581 8.48478 7.54923 8.98459 7.33738C9.4844 7.12554 10.0213 7.01493 10.5641 7.01197C11.107 7.009 11.645 7.11373 12.1471 7.3201C12.6492 7.52647 13.1054 7.83038 13.4892 8.21423C13.8731 8.59808 14.177 9.05426 14.3833 9.55636C14.5897 10.0585 14.6944 10.5965 14.6915 11.1393C14.6885 11.6822 14.5779 12.219 14.3661 12.7189C14.1542 13.2187 13.8453 13.6715 13.4573 14.0511C12.6847 14.8071 11.645 15.2277 10.5641 15.2218C9.48318 15.2159 8.44821 14.7839 7.68387 14.0196C6.91953 13.2552 6.48751 12.2203 6.4816 11.1393C6.4757 10.0584 6.89638 9.01877 7.65232 8.24613ZM9.53432 13.6171C10.1881 13.8879 10.9226 13.8879 11.5764 13.6171C12.2301 13.3463 12.7495 12.8269 13.0203 12.1731C13.2911 11.5194 13.2911 10.7848 13.0203 10.1311C12.7495 9.47731 12.2301 8.95791 11.5763 8.68713C10.9226 8.41634 10.188 8.41635 9.53426 8.68715C8.88051 8.95795 8.36111 9.47737 8.09032 10.1311C7.81953 10.7849 7.81954 11.5194 8.09035 12.1732C8.36115 12.8269 8.88056 13.3463 9.53432 13.6171ZM15.4563 7.67513C15.3674 7.7641 15.2617 7.83467 15.1455 7.88282C15.0292 7.93097 14.9046 7.95575 14.7788 7.95575C14.653 7.95575 14.5284 7.93097 14.4122 7.88282C14.2959 7.83467 14.1903 7.7641 14.1013 7.67513C14.0124 7.58615 13.9418 7.48053 13.8936 7.36429C13.8455 7.24804 13.8207 7.12345 13.8207 6.99763C13.8207 6.8718 13.8455 6.74721 13.8936 6.63096C13.9418 6.51472 14.0124 6.4091 14.1013 6.32013C14.281 6.14044 14.5247 6.0395 14.7788 6.0395C15.0329 6.0395 15.2766 6.14044 15.4563 6.32013C15.636 6.49981 15.7369 6.74351 15.7369 6.99763C15.7369 7.25174 15.636 7.49544 15.4563 7.67513Z" fill="white"/>
</svg>
