<svg width="16" height="16" viewBox="0 0 16 16" fill="none" xmlns="http://www.w3.org/2000/svg">
<g clip-path="url(#clip0_91_721)">
<path d="M1.16569 8.88695C0.976804 8.88695 0.818581 8.82318 0.691026 8.69562C0.56347 8.56807 0.49947 8.40962 0.499026 8.22029C0.498581 8.03095 0.562581 7.87273 0.691026 7.74562C0.81947 7.61851 0.977692 7.55451 1.16569 7.55362L3.49903 7.55362C3.68791 7.55362 3.84636 7.61762 3.97436 7.74562C4.10236 7.87362 4.16614 8.03184 4.16569 8.22029C4.16525 8.40873 4.10125 8.56718 3.97369 8.69562C3.84614 8.82407 3.68791 8.88784 3.49903 8.88695L1.16569 8.88695ZM4.66569 13.337C4.11014 13.337 3.63791 13.1425 3.24903 12.7536C2.86014 12.3647 2.66569 11.8925 2.66569 11.337L1.83236 11.337C1.61014 11.337 1.43236 11.2536 1.29903 11.087C1.16569 10.9203 1.1268 10.7314 1.18236 10.5203L1.33236 9.88695L3.41569 9.88695C3.88236 9.88695 4.2768 9.72584 4.59903 9.40362C4.92125 9.0814 5.08236 8.68695 5.08236 8.22029C5.08236 8.07584 5.06569 7.94251 5.03236 7.82029C4.99903 7.69807 4.95458 7.57584 4.89903 7.45362L5.53236 7.45362C5.99903 7.45362 6.39347 7.29251 6.71569 6.97029C7.03791 6.64807 7.19903 6.25362 7.19903 5.78695C7.19903 5.32029 7.03791 4.92584 6.71569 4.60362C6.39347 4.2814 5.99903 4.12029 5.53236 4.12029L2.99903 4.12029L3.09903 3.72029C3.16569 3.40918 3.31858 3.15651 3.55769 2.96229C3.7968 2.76807 4.07725 2.67073 4.39903 2.67029L11.1657 2.67029C11.3879 2.67029 11.5657 2.75362 11.699 2.92029C11.8324 3.08695 11.8712 3.27584 11.8157 3.48695L11.3824 5.33695L12.6657 5.33695C12.8768 5.33695 13.0768 5.38429 13.2657 5.47895C13.4546 5.57362 13.6101 5.70407 13.7324 5.87029L14.9824 7.52029C15.1046 7.67584 15.1824 7.8454 15.2157 8.02895C15.249 8.21251 15.249 8.39851 15.2157 8.58695L14.7657 10.8036C14.7324 10.9592 14.6546 11.087 14.5324 11.187C14.4101 11.287 14.2712 11.337 14.1157 11.337L13.3324 11.337C13.3324 11.8925 13.1379 12.3647 12.749 12.7536C12.3601 13.1425 11.8879 13.337 11.3324 13.337C10.7768 13.337 10.3046 13.1425 9.91569 12.7536C9.5268 12.3647 9.33236 11.8925 9.33236 11.337L6.66569 11.337C6.66569 11.8925 6.47125 12.3647 6.08236 12.7536C5.69347 13.1425 5.22125 13.337 4.66569 13.337ZM2.49903 6.45362C2.31014 6.45362 2.15191 6.38962 2.02436 6.26162C1.8968 6.13362 1.8328 5.9754 1.83236 5.78695C1.83191 5.59851 1.89591 5.44029 2.02436 5.31229C2.1528 5.18429 2.31103 5.12029 2.49903 5.12029L5.49903 5.12029C5.68791 5.12029 5.84636 5.18429 5.97436 5.31229C6.10236 5.44029 6.16614 5.59851 6.16569 5.78695C6.16525 5.9754 6.10125 6.13384 5.97369 6.26229C5.84614 6.39073 5.68791 6.45451 5.49903 6.45362L2.49903 6.45362ZM4.66569 12.0036C4.85458 12.0036 5.01303 11.9396 5.14103 11.8116C5.26903 11.6836 5.3328 11.5254 5.33236 11.337C5.33191 11.1485 5.26791 10.9903 5.14036 10.8623C5.0128 10.7343 4.85458 10.6703 4.66569 10.6703C4.4768 10.6703 4.31858 10.7343 4.19103 10.8623C4.06347 10.9903 3.99947 11.1485 3.99903 11.337C3.99858 11.5254 4.06258 11.6838 4.19103 11.8123C4.31947 11.9407 4.47769 12.0045 4.66569 12.0036ZM11.3324 12.0036C11.5212 12.0036 11.6797 11.9396 11.8077 11.8116C11.9357 11.6836 11.9995 11.5254 11.999 11.337C11.9986 11.1485 11.9346 10.9903 11.807 10.8623C11.6795 10.7343 11.5212 10.6703 11.3324 10.6703C11.1435 10.6703 10.9852 10.7343 10.8577 10.8623C10.7301 10.9903 10.6661 11.1485 10.6657 11.337C10.6652 11.5254 10.7292 11.6838 10.8577 11.8123C10.9861 11.9407 11.1444 12.0045 11.3324 12.0036ZM10.6157 8.67029L13.8324 8.67029L13.899 8.32029L12.6657 6.67029L11.0824 6.67029L10.6157 8.67029Z" fill="white"/>
</g>
<defs>
<clipPath id="clip0_91_721">
<rect width="16" height="16" fill="white" transform="translate(-0.000976562 0.00366211)"/>
</clipPath>
</defs>
</svg>
