<svg width="16" height="16" viewBox="0 0 16 16" fill="none" xmlns="http://www.w3.org/2000/svg">
<path d="M8.66469 1.33704L8.66429 2.18904L11.998 3.30098L14.4197 2.49376L14.8413 3.75868L12.8203 4.43237L14.8838 10.107C14.1559 10.8651 13.1321 11.337 11.998 11.337C10.864 11.337 9.84022 10.8651 9.11229 10.107L11.175 4.43237L8.66429 3.59504L8.66429 12.6704L11.3314 12.6704L11.3314 14.0037L4.66472 14.0037L4.66472 12.6704L7.33096 12.6704L7.33096 3.59504L4.8203 4.43237L6.88382 10.107C6.15588 10.8651 5.13207 11.337 3.99805 11.337C2.86402 11.337 1.84022 10.8651 1.1123 10.107L3.17497 4.43237L1.15478 3.75868L1.57641 2.49376L3.99805 3.30098L7.33096 2.18904L7.33136 1.33704L8.66469 1.33704ZM11.998 6.07215L11.053 8.67037L12.943 8.67037L11.998 6.07215ZM3.99805 6.07215L3.05297 8.67037L4.94297 8.67037L3.99805 6.07215Z" fill="white"/>
</svg>
